<?xml version="1.0" encoding="UTF-8"?>
<svg width="90px" height="55px" viewBox="0 0 90 55" version="1.1" xmlns="http://www.w3.org/2000/svg" xmlns:xlink="http://www.w3.org/1999/xlink">
    <!-- Generator: Sketch 3.6 (26304) - http://www.bohemiancoding.com/sketch -->
    <title>Untitled 2</title>
    <desc>Created with Sketch.</desc>
    <defs></defs>
    <g id="Page-1" stroke="none" stroke-width="1" fill="none" fill-rule="evenodd">
        <g id="noun_92714_cc" fill="#000000">
            <g id="Group">
                <path d="M39.508,51.246 L0.44,34.061 C0.295,33.996 0.147,33.965 0,33.953 L0,37.234 L38.868,54.336 C39.039,54.414 39.222,54.451 39.408,54.451 C39.524,54.451 39.649,54.433 39.765,54.402 L90,40.258 L90,37.055 C89.915,37.063 89.829,37.076 89.742,37.102 L39.508,51.246 L39.508,51.246 Z" id="Shape"></path>
                <path d="M39.508,45.764 L0.44,28.572 C0.295,28.506 0.147,28.479 0,28.467 L0,31.754 L38.868,48.85 C39.039,48.926 39.222,48.965 39.408,48.965 C39.524,48.965 39.649,48.951 39.765,48.916 L90,34.771 L90,31.572 C89.915,31.58 89.829,31.592 89.742,31.617 L39.508,45.764 L39.508,45.764 Z" id="Shape"></path>
                <path d="M39.508,40.277 L0.44,23.091 C0.295,23.027 0.147,22.997 0,22.986 L0,26.267 L38.868,43.367 C39.039,43.447 39.222,43.482 39.408,43.482 C39.524,43.482 39.649,43.464 39.765,43.435 L90,29.285 L90,26.085 C89.915,26.092 89.829,26.105 89.742,26.13 L39.508,40.277 L39.508,40.277 Z" id="Shape"></path>
                <path d="M39.508,34.795 L0.44,17.605 C0.295,17.54 0.147,17.511 0,17.499 L0,20.783 L38.868,37.879 C39.039,37.959 39.222,38 39.408,38 C39.524,38 39.649,37.98 39.765,37.945 L90,23.805 L90,20.605 C89.915,20.612 89.829,20.626 89.742,20.65 L39.508,34.795 L39.508,34.795 Z" id="Shape"></path>
                <path d="M39.407,31.936 C39.523,31.936 39.648,31.92 39.764,31.885 L90,17.812 L51.119,0.572 C50.834,0.446 50.52,0.421 50.222,0.507 L0,14.537 L38.868,31.818 C39.039,31.898 39.221,31.936 39.407,31.936 L39.407,31.936 Z M50.031,5.545 L73.703,16.092 L71.406,16.733 L47.734,6.187 L50.031,5.545 L50.031,5.545 Z M41.832,7.761 L63.519,17.375 C63.544,17.387 63.562,17.409 63.586,17.424 L65.669,18.35 L63.372,18.991 L62.983,18.82 C62.981,18.819 62.978,18.82 62.976,18.819 L62.544,18.627 L59.97,17.495 L59.983,17.491 L39.535,8.403 L41.832,7.761 L41.832,7.761 Z M32.926,10.277 L56.653,20.844 L54.356,21.485 L30.629,10.918 L32.926,10.277 L32.926,10.277 Z M23.736,12.936 C23.753,12.928 23.771,12.928 23.788,12.921 L24.068,12.843 L47.772,23.372 L45.476,24.013 L21.772,13.484 L23.736,12.936 L23.736,12.936 Z" id="Shape"></path>
            </g>
        </g>
    </g>
</svg>